# xmcd
#
# Track frame offsets:
#	150
#	27422
#	39466
#	57127
#	73277
#	98326
#	111086
#	125464
#	138116
#	161718
#	173883
#	187216
#	198567
#	221088
#	242050
#	256054
#
# Disc length: 3623 seconds
#
# Revision: 1
# Processed by: cddbd v1.5.1PL0 Copyright (c) Steve Scherf et al.
# Submitted via: EasyCDDAExtractor 5.1.0
#
DISCID=e80e2510
DTITLE=пун - кан - о лпалпоукас тяацоудаеи ломос тис мувтес
DYEAR=1994
DGENRE=Ballad
TTITLE0=ема пепко сиыпгс хасйепафеи сам лпалпоукас тг фыг лас
TTITLE1=йаме йати йаи циа сема
TTITLE2=SPLEEN
TTITLE3=NA GINEI TO NERO FVTIA
TTITLE4=ои пакиес ацапес паме стом паяасеисо
TTITLE5=сам тгм адийг йатаяа
TTITLE6=ста йалимиа
TTITLE7=еи лам йоита лпяоста
TTITLE8=дем ажгмоум сгладиа стгм алло тоу вяомоу
TTITLE9=йахе помгяиа тгс еуа ха пома
TTITLE10=маяхеис опыс хаяхоум та векидомиа
TTITLE11=та омеияа тгс лаиягс
TTITLE12=подгката выяис жяемо
TTITLE13=дем се неяеи йамеис
TTITLE14=ма ле хулгхеис
TTITLE15=око л ажгмеис ма с ажгмы
EXTD=
EXTT0=
EXTT1=
EXTT2=
EXTT3=
EXTT4=
EXTT5=
EXTT6=
EXTT7=
EXTT8=
EXTT9=
EXTT10=
EXTT11=
EXTT12=
EXTT13=
EXTT14=
EXTT15=
PLAYORDER=
